<svg width="158" height="186" viewBox="0 0 158 186" fill="none" xmlns="http://www.w3.org/2000/svg">
<path d="M72.0875 157.635H86.9V110.903L107.144 129.967L117.512 120.203L79 84.8625L40.9812 120.668L51.35 130.432L72.0875 110.903V157.635ZM14.8125 186C10.8625 186 7.40625 184.605 4.44375 181.815C1.48125 179.025 0 175.77 0 172.05V13.95C0 10.23 1.48125 6.975 4.44375 4.185C7.40625 1.395 10.8625 0 14.8125 0H103.934L158 50.9175V172.05C158 175.77 156.519 179.025 153.556 181.815C150.594 184.605 147.137 186 143.188 186H14.8125ZM96.5281 57.195V13.95H14.8125V172.05H143.188V57.195H96.5281ZM14.8125 13.95V57.195V13.95V172.05V13.95Z" fill="white"/>
</svg>
